<svg xmlns="http://www.w3.org/2000/svg" viewBox="20 20 210 230">
  <g fill="none" fill-rule="evenodd">
    <path stroke="#000" stroke-linecap="round" stroke-width="6" d="M16.5 142.3h42.7c12.6-31 33-46.6 61.4-46.6 28.3 0 48.6 15.5 60.8 46.6h52.1"/>
    <circle cx="150.6" cy="103.7" r="9" fill="#000" stroke="#000"/>
    <g fill="#000" fill-rule="nonzero">
      <path d="M32.9 192.2h2.5c2.3 0 2.3-3.5 0-3.5H33c-2.4 0-2.4 3.5 0 3.5zm30.1 0h2.6c2.2 0 2.2-3.5 0-3.5H63c-2.3 0-2.4 3.5 0 3.5zm-15.4-18v2.6c0 2.3 3.6 2.4 3.6 0v-2.6c0-2.2-3.6-2.2-3.6 0zm12.8 7.9l1.8-1.8c1.6-1.7-.9-4.2-2.6-2.5l-1.8 1.7c-1.5 1.7 1 4.1 2.6 2.6zM38 182c1.6 1.6 4-1 2.5-2.5l-1.8-1.8c-1.6-1.6-4.2.8-2.5 2.5l1.8 1.8z"/>
      <path d="M58.7 190.6c0-5.3-4-9.6-9.4-9.6a9.6 9.6 0 00-9.6 9.6c0 2 .6 3.7 1.7 5.2H24v4h50.3v-4H57.2a9.5 9.5 0 001.5-5.2zm-4.2 0c-.1 7.1-10.6 6.8-10.5 0 0-6.9 10.5-6.9 10.5 0zM47.4 169h4v-7.7l4.8 4.9v-5.8l-6.8-6.9-6.8 6.9v5.8l4.8-4.9z"/>
    </g>
    <g fill="#000" fill-rule="nonzero">
      <path d="M180 192.2h2.6c2.2 0 2.2-3.5 0-3.5h-2.5c-2.4 0-2.4 3.5 0 3.5zm30.2 0h2.6c2.2 0 2.2-3.5 0-3.5h-2.6c-2.3 0-2.4 3.5 0 3.5zm-15.4-18v2.6c0 2.3 3.6 2.4 3.6 0v-2.6c0-2.2-3.6-2.2-3.6 0zm12.8 7.9l1.8-1.8c1.6-1.7-.9-4.2-2.6-2.5l-1.8 1.7c-1.5 1.7 1 4.1 2.6 2.6zm-22.3 0c1.6 1.6 4-1 2.5-2.5l-1.8-1.8c-1.6-1.6-4.2.8-2.5 2.5l1.8 1.8z"/>
      <path d="M206 190.6c0-5.3-4.2-9.6-9.6-9.6a9.6 9.6 0 00-9.5 9.6c0 2 .6 3.7 1.6 5.2h-17.3v4h50.3v-4h-17.2a9.5 9.5 0 001.6-5.2zm-4.4 0c0 7.1-10.5 6.8-10.4 0 0-6.9 10.5-6.9 10.4 0zM194.6 153.5h4v7.7l4.8-4.8v5.8l-6.8 6.8-6.8-6.8v-5.8l4.8 4.8z"/>
    </g>
    <text fill="#000" font-family="Helvetica" font-size="21" font-weight="bold">
      <tspan x="120.9" y="79.8">4:32PM</tspan>
    </text>
  </g>
</svg>
