<svg xmlns="http://www.w3.org/2000/svg" viewBox="-30 -30 280 280">
  <g fill="none" fill-rule="evenodd">
    <g fill="#000" fill-rule="nonzero">
      <path d="M188.5 206.5H61.2a2.7 2.7 0 110-5.5h127.3a2.7 2.7 0 110 5.5zm-63.7-108A71.5 71.5 0 0192.4 90c-4.6-2.2-9.8-3.4-15.3-4.6-1.7-.4-7-1.7-7-5.5s5-5.3 8.8-6.2c3.2-.6 6.1-1 9-1.4l6-1a2.7 2.7 0 013.2 2.3 2.7 2.7 0 01-2.2 3.2l-6.2 1a114.8 114.8 0 00-11.3 2l1 .3a72 72 0 0116.4 5 66.2 66.2 0 0030 7.7 2.7 2.7 0 012.7 2.8 2.7 2.7 0 01-2.7 2.7z"/>
      <path d="M124.8 98.4a2.7 2.7 0 01-2.8-2.7 2.7 2.7 0 012.8-2.8 67 67 0 0030-7.7c5.3-2.6 11-3.8 16.6-5l.8-.3a120.1 120.1 0 00-11.1-2 125 125 0 01-6.3-1 2.7 2.7 0 01-2.2-3.2 2.7 2.7 0 013.2-2.2l6 .9c2.9.4 5.8.8 9 1.4 3.7.9 8.7 2.4 8.7 6.2 0 3.8-5.2 5-7 5.5-5.4 1.2-10.6 2.4-15.3 4.6a72.3 72.3 0 01-32.4 8.3zM94.6 77a2.7 2.7 0 01-2.7-3.4c4.3-17.4 9.5-27 16-29.4 2.4-.9 6-1.2 10.4 1.9 1.8 1.4 3.8 2 6.5 2a2.7 2.7 0 012.7 2.7 2.7 2.7 0 01-2.7 2.8c-3.9 0-7-1-9.8-3-2.5-1.9-4.1-1.6-5.1-1.3-2.6 1-7.8 5.6-12.7 25.6a2.7 2.7 0 01-2.6 2.1z"/>
      <path d="M155.1 77a2.7 2.7 0 01-2.7-2.2c-4.9-20-10-24.6-12.6-25.5-1-.4-2.7-.7-5.3 1.2-2.8 2-5.8 3-9.7 3a2.7 2.7 0 01-2.8-2.8 2.7 2.7 0 012.8-2.7c2.7 0 4.6-.6 6.4-2 4.5-3.1 8.2-2.8 10.5-1.9 6.5 2.5 11.8 12 16 29.4a2.7 2.7 0 01-2.6 3.4z"/>
      <path d="M124.8 82.7c-10.6 0-21.2-2-31.4-6a2.7 2.7 0 01-1.5-3.5 2.7 2.7 0 013.6-1.6c18.9 7.5 39.8 7.5 58.7 0a2.7 2.7 0 013.6 1.6 2.7 2.7 0 01-1.6 3.5c-10.1 4-20.7 6-31.4 6zm63.7 123.8a2.7 2.7 0 01-2.7-2.7c0-17.4-4.5-33.3-12.3-43.5-4-5.2-9.6-8.5-15.6-12-4.6-2.8-9.4-5.7-13.4-9.5a2.7 2.7 0 01-.1-4 2.7 2.7 0 013.9 0c3.5 3.4 7.9 6 12.4 8.7a56.6 56.6 0 0117.1 13.5 78.7 78.7 0 0113.4 46.8 2.7 2.7 0 01-2.7 2.7z"/>
      <path d="M111.7 206.5a2.7 2.7 0 01-2.7-3.3c9-40.5 18.7-69.5 29-86.3a2.7 2.7 0 012.3-1.3c17.6-.6 20-3 20.4-3.4-.2 0-1-1.8-7.5-5.3a2.7 2.7 0 012.7-4.8c5.2 2.8 11.2 6.7 10 11.4-1 4.6-8 6.8-24 7.5-9.7 16.5-19 44.5-27.6 83.3a2.7 2.7 0 01-2.6 2.2z"/>
      <path d="M123.3 206.5l-.7-.1a2.7 2.7 0 01-2-3.4c4.1-14.7 13.3-30.5 27.3-47l-10.4-6a2.7 2.7 0 01-1-4c6.1-8.8 14.6-20.7 24.6-34.5a2.7 2.7 0 013.8-.6 2.7 2.7 0 01.6 3.9c-9 12.4-16.9 23.4-22.7 31.9 5 2.8 8.5 5 10.7 6.4a2.7 2.7 0 01.6 4 126 126 0 00-28.2 47.4 2.8 2.8 0 01-2.6 2zm30-94.5a2.7 2.7 0 01-2.6-3.6A73 73 0 00154 88a2.7 2.7 0 115.5 0c0 7-1.2 15-3.4 22.2a2.7 2.7 0 01-2.7 1.9zm-57 0a2.7 2.7 0 01-2.6-2A78.5 78.5 0 0190.2 88a2.7 2.7 0 115.5 0c0 6.4 1.2 13.9 3.2 20.5a2.7 2.7 0 01-2.6 3.6zm-35.1 94.5a2.7 2.7 0 01-2.8-2.7c0-18.7 4.9-35.8 13.3-46.8 4.7-6 11-9.8 17.2-13.5 4.6-2.7 9-5.3 12.5-8.7a2.7 2.7 0 013.9 0 2.7 2.7 0 01-.1 4c-4 3.8-8.9 6.7-13.5 9.4-6 3.6-11.6 7-15.6 12.1a73.2 73.2 0 00-12.2 43.5 2.7 2.7 0 01-2.7 2.7z"/>
      <path d="M124.8 157.1a2.7 2.7 0 01-2.6-1.9 176.5 176.5 0 00-14.5-34.2c-16-.7-23-2.9-24-7.5-1.2-4.7 4.7-8.6 10-11.4a2.7 2.7 0 112.6 4.8c-6.8 3.7-7.3 5.5-7.3 5.6 0 0 2 2.4 20.4 3.1a2.7 2.7 0 012.2 1.3c5.4 8.8 10.6 20.8 15.8 36.6a2.7 2.7 0 01-1.8 3.5 2.7 2.7 0 01-.8.1z"/>
      <path d="M116.9 184.5c-1 0-1.9-.4-2.4-1.3-4.8-8.4-11-17-19-26a2.7 2.7 0 01.6-4.1c2.1-1.4 5.3-3.3 10.8-6.4-5.5-7.9-13.1-18.6-22.8-32a2.7 2.7 0 01.7-3.8 2.8 2.8 0 013.8.6A2099 2099 0 01113 146a2.7 2.7 0 01-.9 4l-10.5 6c7.2 8.5 13 16.5 17.6 24.4a2.7 2.7 0 01-1 3.8l-1.4.3zm-32.6 22a2.7 2.7 0 01-2.7-2.7v-10.4a2.7 2.7 0 115.5 0v10.4a2.7 2.7 0 01-2.8 2.7zm81 0a2.7 2.7 0 01-2.7-2.7v-10.4a2.7 2.7 0 115.5 0v10.4a2.7 2.7 0 01-2.8 2.7z"/>
    </g>
    <circle cx="125" cy="125" r="115" stroke="#000" stroke-width="6"/>
    <path stroke="#000" stroke-linecap="square" stroke-width="6" d="M45.3 205.3l160-160.6"/>
  </g>
</svg>
