<svg xmlns="http://www.w3.org/2000/svg" viewBox="0 0 250 250">
  <g fill="none">
    <path stroke="#000" stroke-width="6" d="M205.2 105.4a60.4 60.4 0 000-2.6A57.8 57.8 0 0095.1 78.2a31.5 31.5 0 00-18.4-5.8c-17 0-31 13.4-31 30 0 2.4.4 4.8 1 7a43.6 43.6 0 00-34.2 43 42.4 42.4 0 0043 42.6h140.9c22.7 0 41.1-19.3 41.1-44.7 0-22-13.8-40.4-32.3-44.9z"/>
    <path fill="#000" d="M112 153l-4 4.6c-.9 1-2.4 1-3.3.2a32.7 32.7 0 0120.3-56.4v-6.1c0-.5.5-.7.8-.4l10.9 11.3a.6.6 0 010 .8l-10.9 11.3c-.3.3-.8 0-.8-.4V112a22.2 22.2 0 00-13.3 37.8c.9.9 1 2.2.2 3.2zm17.7 13.7v6.8c0 .5-.5.8-.8.4L118 162.6a.6.6 0 010-.8l11-11.3c.2-.3.7 0 .7.4v5.1l2.2-.3a22.1 22.1 0 0010.5-38c-1-.8-1.1-2.2-.3-3.1l4-4.6c.9-1 2.4-1 3.3-.2a32.7 32.7 0 01-19.7 57z"/>
  </g>
</svg>
